<svg width="239" height="81" viewBox="0 0 239 81" fill="none" xmlns="http://www.w3.org/2000/svg">
<g clip-path="url(#clip0_28_5059)">
<path d="M22.3086 1.46055L2.13754 21.5479C1.05311 22.6278 1.05311 24.3721 2.13754 25.452L22.3086 45.5393C23.3931 46.6193 25.1446 46.6193 26.2291 45.5393L34.6865 37.117C35.6577 36.1499 35.6577 34.5818 34.6865 33.6146C33.7153 32.6475 32.1407 32.6475 31.1695 33.6146L24.758 39.9995C24.4881 40.2683 24.0784 40.2683 23.8085 39.9995L7.70045 23.9584C7.43054 23.6896 7.43054 23.2816 7.70045 23.0128L23.8085 6.97166C24.0784 6.70287 24.4881 6.70287 24.758 6.97166L31.1695 13.3566C32.1407 14.3237 33.7153 14.3237 34.6865 13.3566C35.6577 12.3894 35.6577 10.8213 34.6865 9.85419L26.23 1.43277C25.1411 0.376211 23.3889 0.384764 22.3086 1.46055Z" fill="url(#paint0_linear_28_5059)"/>
<path d="M22.3086 1.46055L2.13754 21.5479C1.05311 22.6278 1.05311 24.3721 2.13754 25.452L22.3086 45.5393C23.3931 46.6193 25.1446 46.6193 26.2291 45.5393L34.6865 37.117C35.6577 36.1499 35.6577 34.5818 34.6865 33.6146C33.7153 32.6475 32.1407 32.6475 31.1695 33.6146L24.758 39.9995C24.4881 40.2683 24.0784 40.2683 23.8085 39.9995L7.70045 23.9584C7.43054 23.6896 7.43054 23.2816 7.70045 23.0128L23.8085 6.97166C24.4806 6.3942 25.5772 5.22457 27.1875 4.95101C28.3842 4.74771 29.6926 5.19517 31.1126 6.2934C30.1632 5.34799 28.5357 3.72777 26.23 1.43277C25.1411 0.376211 23.3889 0.384764 22.3086 1.46055Z" fill="url(#paint1_linear_28_5059)"/>
<path d="M36.6386 31.7465C37.6098 32.7136 39.1844 32.7136 40.1555 31.7465L46.3942 25.5338C47.4786 24.4538 47.4786 22.7096 46.3943 21.6298L40.1013 15.3851C39.1278 14.4191 37.5527 14.4205 36.5809 15.3882C35.6097 16.3554 35.6097 17.9234 36.5809 18.8906L40.8313 23.1233C41.1012 23.3921 41.1012 23.8 40.8313 24.0688L36.6386 28.2441C35.6674 29.2113 35.6674 30.7793 36.6386 31.7465Z" fill="url(#paint2_linear_28_5059)"/>
<path d="M24.3695 29.0239C27.3774 29.0239 29.8157 26.5957 29.8157 23.6003C29.8157 20.605 27.3774 18.1768 24.3695 18.1768C21.3617 18.1768 18.9233 20.605 18.9233 23.6003C18.9233 26.5957 21.3617 29.0239 24.3695 29.0239Z" fill="url(#paint3_linear_28_5059)"/>
</g>
<path d="M83.2798 15.614C82.4218 14.69 81.5858 14.074 80.7718 13.766C79.9798 13.458 79.1768 13.304 78.3628 13.304C77.1528 13.304 76.0528 13.524 75.0628 13.964C74.0948 14.382 73.2588 14.976 72.5548 15.746C71.8508 16.494 71.3008 17.374 70.9048 18.386C70.5308 19.398 70.3438 20.487 70.3438 21.653C70.3438 22.907 70.5308 24.062 70.9048 25.118C71.3008 26.174 71.8508 27.087 72.5548 27.857C73.2588 28.627 74.0948 29.232 75.0628 29.672C76.0528 30.112 77.1528 30.332 78.3628 30.332C79.3088 30.332 80.2218 30.112 81.1018 29.672C82.0038 29.21 82.8398 28.484 83.6098 27.494L87.0418 29.936C85.9858 31.388 84.6988 32.444 83.1808 33.104C81.6628 33.764 80.0458 34.094 78.3298 34.094C76.5258 34.094 74.8648 33.808 73.3468 33.236C71.8508 32.642 70.5528 31.817 69.4528 30.761C68.3748 29.683 67.5278 28.396 66.9118 26.9C66.2958 25.404 65.9878 23.743 65.9878 21.917C65.9878 20.047 66.2958 18.353 66.9118 16.835C67.5278 15.295 68.3748 13.986 69.4528 12.908C70.5528 11.83 71.8508 11.005 73.3468 10.433C74.8648 9.839 76.5258 9.542 78.3298 9.542C79.9138 9.542 81.3768 9.828 82.7188 10.4C84.0828 10.95 85.3478 11.896 86.5138 13.238L83.2798 15.614ZM99.5346 31.322H99.4356C98.8636 32.224 98.1376 32.884 97.2576 33.302C96.3776 33.698 95.4096 33.896 94.3536 33.896C93.6276 33.896 92.9126 33.797 92.2086 33.599C91.5266 33.401 90.9106 33.104 90.3606 32.708C89.8326 32.312 89.4036 31.817 89.0736 31.223C88.7436 30.629 88.5786 29.936 88.5786 29.144C88.5786 28.286 88.7326 27.56 89.0406 26.966C89.3486 26.35 89.7556 25.844 90.2616 25.448C90.7896 25.03 91.3946 24.7 92.0766 24.458C92.7586 24.216 93.4626 24.04 94.1886 23.93C94.9366 23.798 95.6846 23.721 96.4326 23.699C97.1806 23.655 97.8846 23.633 98.5446 23.633H99.5346V23.204C99.5346 22.214 99.1936 21.477 98.5116 20.993C97.8296 20.487 96.9606 20.234 95.9046 20.234C95.0686 20.234 94.2876 20.388 93.5616 20.696C92.8356 20.982 92.2086 21.378 91.6806 21.884L89.6016 19.805C90.4816 18.903 91.5046 18.254 92.6706 17.858C93.8586 17.462 95.0796 17.264 96.3336 17.264C97.4556 17.264 98.4016 17.396 99.1716 17.66C99.9416 17.902 100.58 18.221 101.086 18.617C101.592 19.013 101.977 19.475 102.241 20.003C102.527 20.509 102.725 21.026 102.835 21.554C102.967 22.082 103.044 22.599 103.066 23.105C103.088 23.589 103.099 24.018 103.099 24.392V33.5H99.5346V31.322ZM99.3036 26.405H98.4786C97.9286 26.405 97.3126 26.427 96.6306 26.471C95.9486 26.515 95.2996 26.625 94.6836 26.801C94.0896 26.955 93.5836 27.197 93.1656 27.527C92.7476 27.835 92.5386 28.275 92.5386 28.847C92.5386 29.221 92.6156 29.54 92.7696 29.804C92.9456 30.046 93.1656 30.255 93.4296 30.431C93.6936 30.607 93.9906 30.739 94.3206 30.827C94.6506 30.893 94.9806 30.926 95.3106 30.926C96.6746 30.926 97.6756 30.607 98.3136 29.969C98.9736 29.309 99.3036 28.418 99.3036 27.296V26.405ZM107.59 8.552H111.55V33.5H107.59V8.552ZM119.429 26.966C119.561 28.154 120.023 29.078 120.815 29.738C121.607 30.398 122.564 30.728 123.686 30.728C124.676 30.728 125.501 30.53 126.161 30.134C126.843 29.716 127.437 29.199 127.943 28.583L130.781 30.728C129.857 31.872 128.823 32.686 127.679 33.17C126.535 33.654 125.336 33.896 124.082 33.896C122.894 33.896 121.772 33.698 120.716 33.302C119.66 32.906 118.747 32.345 117.977 31.619C117.207 30.893 116.591 30.024 116.129 29.012C115.689 27.978 115.469 26.834 115.469 25.58C115.469 24.326 115.689 23.193 116.129 22.181C116.591 21.147 117.207 20.267 117.977 19.541C118.747 18.815 119.66 18.254 120.716 17.858C121.772 17.462 122.894 17.264 124.082 17.264C125.182 17.264 126.183 17.462 127.085 17.858C128.009 18.232 128.79 18.782 129.428 19.508C130.088 20.234 130.594 21.136 130.946 22.214C131.32 23.27 131.507 24.491 131.507 25.877V26.966H119.429ZM127.547 23.996C127.525 22.83 127.162 21.917 126.458 21.257C125.754 20.575 124.775 20.234 123.521 20.234C122.333 20.234 121.387 20.575 120.683 21.257C120.001 21.939 119.583 22.852 119.429 23.996H127.547ZM135.376 17.66H139.138V20.201H139.204C139.578 19.409 140.15 18.727 140.92 18.155C141.69 17.561 142.735 17.264 144.055 17.264C145.111 17.264 146.002 17.44 146.728 17.792C147.476 18.144 148.081 18.606 148.543 19.178C149.005 19.75 149.335 20.41 149.533 21.158C149.731 21.906 149.83 22.687 149.83 23.501V33.5H145.87V25.481C145.87 25.041 145.848 24.557 145.804 24.029C145.76 23.479 145.639 22.973 145.441 22.511C145.265 22.027 144.979 21.631 144.583 21.323C144.187 20.993 143.648 20.828 142.966 20.828C142.306 20.828 141.745 20.938 141.283 21.158C140.843 21.378 140.469 21.675 140.161 22.049C139.875 22.423 139.666 22.852 139.534 23.336C139.402 23.82 139.336 24.326 139.336 24.854V33.5H135.376V17.66ZM167.03 31.124H166.964C166.392 32.092 165.622 32.796 164.654 33.236C163.686 33.676 162.641 33.896 161.519 33.896C160.287 33.896 159.187 33.687 158.219 33.269C157.273 32.829 156.459 32.235 155.777 31.487C155.095 30.739 154.578 29.859 154.226 28.847C153.874 27.835 153.698 26.746 153.698 25.58C153.698 24.414 153.885 23.325 154.259 22.313C154.633 21.301 155.15 20.421 155.81 19.673C156.492 18.925 157.306 18.342 158.252 17.924C159.198 17.484 160.232 17.264 161.354 17.264C162.102 17.264 162.762 17.341 163.334 17.495C163.906 17.649 164.412 17.847 164.852 18.089C165.292 18.331 165.666 18.595 165.974 18.881C166.282 19.145 166.535 19.409 166.733 19.673H166.832V8.552H170.792V33.5H167.03V31.124ZM157.658 25.58C157.658 26.196 157.757 26.79 157.955 27.362C158.175 27.934 158.483 28.44 158.879 28.88C159.297 29.32 159.792 29.672 160.364 29.936C160.936 30.2 161.585 30.332 162.311 30.332C163.037 30.332 163.686 30.2 164.258 29.936C164.83 29.672 165.314 29.32 165.71 28.88C166.128 28.44 166.436 27.934 166.634 27.362C166.854 26.79 166.964 26.196 166.964 25.58C166.964 24.964 166.854 24.37 166.634 23.798C166.436 23.226 166.128 22.72 165.71 22.28C165.314 21.84 164.83 21.488 164.258 21.224C163.686 20.96 163.037 20.828 162.311 20.828C161.585 20.828 160.936 20.96 160.364 21.224C159.792 21.488 159.297 21.84 158.879 22.28C158.483 22.72 158.175 23.226 157.955 23.798C157.757 24.37 157.658 24.964 157.658 25.58ZM185.341 31.322H185.242C184.67 32.224 183.944 32.884 183.064 33.302C182.184 33.698 181.216 33.896 180.16 33.896C179.434 33.896 178.719 33.797 178.015 33.599C177.333 33.401 176.717 33.104 176.167 32.708C175.639 32.312 175.21 31.817 174.88 31.223C174.55 30.629 174.385 29.936 174.385 29.144C174.385 28.286 174.539 27.56 174.847 26.966C175.155 26.35 175.562 25.844 176.068 25.448C176.596 25.03 177.201 24.7 177.883 24.458C178.565 24.216 179.269 24.04 179.995 23.93C180.743 23.798 181.491 23.721 182.239 23.699C182.987 23.655 183.691 23.633 184.351 23.633H185.341V23.204C185.341 22.214 185 21.477 184.318 20.993C183.636 20.487 182.767 20.234 181.711 20.234C180.875 20.234 180.094 20.388 179.368 20.696C178.642 20.982 178.015 21.378 177.487 21.884L175.408 19.805C176.288 18.903 177.311 18.254 178.477 17.858C179.665 17.462 180.886 17.264 182.14 17.264C183.262 17.264 184.208 17.396 184.978 17.66C185.748 17.902 186.386 18.221 186.892 18.617C187.398 19.013 187.783 19.475 188.047 20.003C188.333 20.509 188.531 21.026 188.641 21.554C188.773 22.082 188.85 22.599 188.872 23.105C188.894 23.589 188.905 24.018 188.905 24.392V33.5H185.341V31.322ZM185.11 26.405H184.285C183.735 26.405 183.119 26.427 182.437 26.471C181.755 26.515 181.106 26.625 180.49 26.801C179.896 26.955 179.39 27.197 178.972 27.527C178.554 27.835 178.345 28.275 178.345 28.847C178.345 29.221 178.422 29.54 178.576 29.804C178.752 30.046 178.972 30.255 179.236 30.431C179.5 30.607 179.797 30.739 180.127 30.827C180.457 30.893 180.787 30.926 181.117 30.926C182.481 30.926 183.482 30.607 184.12 29.969C184.78 29.309 185.11 28.418 185.11 27.296V26.405ZM193.331 17.66H197.291V20.168H197.357C197.797 19.244 198.424 18.529 199.238 18.023C200.052 17.517 200.987 17.264 202.043 17.264C202.285 17.264 202.516 17.286 202.736 17.33C202.978 17.374 203.22 17.429 203.462 17.495V21.323C203.132 21.235 202.802 21.169 202.472 21.125C202.164 21.059 201.856 21.026 201.548 21.026C200.624 21.026 199.876 21.202 199.304 21.554C198.754 21.884 198.325 22.269 198.017 22.709C197.731 23.149 197.533 23.589 197.423 24.029C197.335 24.469 197.291 24.799 197.291 25.019V33.5H193.331V17.66Z" fill="black" fill-opacity="0.85"/>
<path d="M49.5723 65.0469H50.8506L54.1113 73.1611L57.3652 65.0469H58.6504L54.6035 75H53.6055L49.5723 65.0469ZM49.1553 65.0469H50.2832L50.4678 71.1172V75H49.1553V65.0469ZM57.9326 65.0469H59.0605V75H57.748V71.1172L57.9326 65.0469ZM65.5479 73.7354V69.9277C65.5479 69.6361 65.4886 69.3831 65.3701 69.1689C65.2562 68.9502 65.083 68.7816 64.8506 68.6631C64.6182 68.5446 64.3311 68.4854 63.9893 68.4854C63.6702 68.4854 63.39 68.54 63.1484 68.6494C62.9115 68.7588 62.7246 68.9023 62.5879 69.0801C62.4557 69.2578 62.3896 69.4492 62.3896 69.6543H61.125C61.125 69.39 61.1934 69.1279 61.3301 68.8682C61.4668 68.6084 61.6628 68.3737 61.918 68.1641C62.1777 67.9499 62.4876 67.7812 62.8477 67.6582C63.2122 67.5306 63.6178 67.4668 64.0645 67.4668C64.6022 67.4668 65.0762 67.5579 65.4863 67.7402C65.901 67.9225 66.2246 68.1982 66.457 68.5674C66.694 68.932 66.8125 69.39 66.8125 69.9414V73.3867C66.8125 73.6328 66.833 73.8949 66.874 74.1729C66.9196 74.4508 66.9857 74.6901 67.0723 74.8906V75H65.7529C65.6891 74.8542 65.639 74.6605 65.6025 74.4189C65.5661 74.1729 65.5479 73.945 65.5479 73.7354ZM65.7666 70.5156L65.7803 71.4043H64.502C64.1419 71.4043 63.8206 71.4339 63.5381 71.4932C63.2555 71.5479 63.0186 71.6322 62.8271 71.7461C62.6357 71.86 62.4899 72.0036 62.3896 72.1768C62.2894 72.3454 62.2393 72.5436 62.2393 72.7715C62.2393 73.0039 62.2917 73.2158 62.3965 73.4072C62.5013 73.5986 62.6585 73.7513 62.8682 73.8652C63.0824 73.9746 63.3444 74.0293 63.6543 74.0293C64.0417 74.0293 64.3835 73.9473 64.6797 73.7832C64.9759 73.6191 65.2106 73.4186 65.3838 73.1816C65.5615 72.9447 65.6572 72.7145 65.6709 72.4912L66.2109 73.0996C66.179 73.291 66.0924 73.5029 65.9512 73.7354C65.8099 73.9678 65.6208 74.1911 65.3838 74.4053C65.1514 74.6149 64.8734 74.7904 64.5498 74.9316C64.2308 75.0684 63.8708 75.1367 63.4697 75.1367C62.9684 75.1367 62.5286 75.0387 62.1504 74.8428C61.7767 74.6468 61.485 74.3848 61.2754 74.0566C61.0703 73.724 60.9678 73.3525 60.9678 72.9424C60.9678 72.5459 61.0452 72.1973 61.2002 71.8965C61.3551 71.5911 61.5785 71.3382 61.8701 71.1377C62.1618 70.9326 62.5127 70.7777 62.9229 70.6729C63.333 70.568 63.791 70.5156 64.2969 70.5156H65.7666ZM70.0664 69.1826V75H68.8018V67.6035H69.998L70.0664 69.1826ZM69.7656 71.0215L69.2393 71.001C69.2438 70.4951 69.319 70.028 69.4648 69.5996C69.6107 69.1667 69.8158 68.7907 70.0801 68.4717C70.3444 68.1527 70.6589 67.9066 71.0234 67.7334C71.3926 67.5557 71.8005 67.4668 72.2471 67.4668C72.6117 67.4668 72.9398 67.5169 73.2314 67.6172C73.5231 67.7129 73.7715 67.8678 73.9766 68.082C74.1862 68.2962 74.3457 68.5742 74.4551 68.916C74.5645 69.2533 74.6191 69.6657 74.6191 70.1533V75H73.3477V70.1396C73.3477 69.7523 73.2907 69.4424 73.1768 69.21C73.0628 68.973 72.8965 68.8021 72.6777 68.6973C72.459 68.5879 72.1901 68.5332 71.8711 68.5332C71.5566 68.5332 71.2695 68.5993 71.0098 68.7314C70.7546 68.8636 70.5335 69.0459 70.3467 69.2783C70.1644 69.5107 70.0208 69.7773 69.916 70.0781C69.8158 70.3743 69.7656 70.6888 69.7656 71.0215ZM80.9014 73.7354V69.9277C80.9014 69.6361 80.8421 69.3831 80.7236 69.1689C80.6097 68.9502 80.4365 68.7816 80.2041 68.6631C79.9717 68.5446 79.6846 68.4854 79.3428 68.4854C79.0238 68.4854 78.7435 68.54 78.502 68.6494C78.265 68.7588 78.0781 68.9023 77.9414 69.0801C77.8092 69.2578 77.7432 69.4492 77.7432 69.6543H76.4785C76.4785 69.39 76.5469 69.1279 76.6836 68.8682C76.8203 68.6084 77.0163 68.3737 77.2715 68.1641C77.5312 67.9499 77.8411 67.7812 78.2012 67.6582C78.5658 67.5306 78.9714 67.4668 79.418 67.4668C79.9557 67.4668 80.4297 67.5579 80.8398 67.7402C81.2546 67.9225 81.5781 68.1982 81.8105 68.5674C82.0475 68.932 82.166 69.39 82.166 69.9414V73.3867C82.166 73.6328 82.1865 73.8949 82.2275 74.1729C82.2731 74.4508 82.3392 74.6901 82.4258 74.8906V75H81.1064C81.0426 74.8542 80.9925 74.6605 80.9561 74.4189C80.9196 74.1729 80.9014 73.945 80.9014 73.7354ZM81.1201 70.5156L81.1338 71.4043H79.8555C79.4954 71.4043 79.1742 71.4339 78.8916 71.4932C78.609 71.5479 78.3721 71.6322 78.1807 71.7461C77.9893 71.86 77.8434 72.0036 77.7432 72.1768C77.6429 72.3454 77.5928 72.5436 77.5928 72.7715C77.5928 73.0039 77.6452 73.2158 77.75 73.4072C77.8548 73.5986 78.012 73.7513 78.2217 73.8652C78.4359 73.9746 78.6979 74.0293 79.0078 74.0293C79.3952 74.0293 79.737 73.9473 80.0332 73.7832C80.3294 73.6191 80.5641 73.4186 80.7373 73.1816C80.915 72.9447 81.0107 72.7145 81.0244 72.4912L81.5645 73.0996C81.5326 73.291 81.446 73.5029 81.3047 73.7354C81.1634 73.9678 80.9743 74.1911 80.7373 74.4053C80.5049 74.6149 80.2269 74.7904 79.9033 74.9316C79.5843 75.0684 79.2243 75.1367 78.8232 75.1367C78.3219 75.1367 77.8822 75.0387 77.5039 74.8428C77.1302 74.6468 76.8385 74.3848 76.6289 74.0566C76.4238 73.724 76.3213 73.3525 76.3213 72.9424C76.3213 72.5459 76.3988 72.1973 76.5537 71.8965C76.7087 71.5911 76.932 71.3382 77.2236 71.1377C77.5153 70.9326 77.8662 70.7777 78.2764 70.6729C78.6865 70.568 79.1445 70.5156 79.6504 70.5156H81.1201ZM88.9473 67.6035H90.0957V74.8428C90.0957 75.4945 89.9635 76.0505 89.6992 76.5107C89.4349 76.971 89.0658 77.3197 88.5918 77.5566C88.1224 77.7982 87.5801 77.9189 86.9648 77.9189C86.7096 77.9189 86.4089 77.8779 86.0625 77.7959C85.7207 77.7184 85.3835 77.584 85.0508 77.3926C84.7227 77.2057 84.4469 76.9528 84.2236 76.6338L84.8867 75.8818C85.1966 76.2555 85.5202 76.5153 85.8574 76.6611C86.1992 76.807 86.5365 76.8799 86.8691 76.8799C87.2702 76.8799 87.6165 76.8047 87.9082 76.6543C88.1999 76.5039 88.4255 76.2806 88.585 75.9844C88.749 75.6927 88.8311 75.3327 88.8311 74.9043V69.2305L88.9473 67.6035ZM83.8545 71.3838V71.2402C83.8545 70.6751 83.9206 70.1624 84.0527 69.7021C84.1895 69.2373 84.3831 68.8385 84.6338 68.5059C84.889 68.1732 85.1966 67.918 85.5566 67.7402C85.9167 67.5579 86.3223 67.4668 86.7734 67.4668C87.2383 67.4668 87.6439 67.5488 87.9902 67.7129C88.3411 67.8724 88.6374 68.1071 88.8789 68.417C89.125 68.7223 89.3187 69.0915 89.46 69.5244C89.6012 69.9574 89.6992 70.4473 89.7539 70.9941V71.623C89.7038 72.1654 89.6058 72.653 89.46 73.0859C89.3187 73.5189 89.125 73.888 88.8789 74.1934C88.6374 74.4987 88.3411 74.7334 87.9902 74.8975C87.6393 75.057 87.2292 75.1367 86.7598 75.1367C86.3177 75.1367 85.9167 75.0433 85.5566 74.8564C85.2012 74.6696 84.8958 74.4076 84.6406 74.0703C84.3854 73.7331 84.1895 73.3366 84.0527 72.8809C83.9206 72.4206 83.8545 71.9215 83.8545 71.3838ZM85.1191 71.2402V71.3838C85.1191 71.7529 85.1556 72.0993 85.2285 72.4229C85.306 72.7464 85.4222 73.0312 85.5771 73.2773C85.7367 73.5234 85.9395 73.7171 86.1855 73.8584C86.4316 73.9951 86.7256 74.0635 87.0674 74.0635C87.4867 74.0635 87.833 73.9746 88.1064 73.7969C88.3799 73.6191 88.5964 73.3844 88.7559 73.0928C88.9199 72.8011 89.0475 72.4844 89.1387 72.1426V70.4951C89.0885 70.2445 89.0111 70.0029 88.9062 69.7705C88.806 69.5335 88.6738 69.3239 88.5098 69.1416C88.3503 68.9548 88.152 68.8066 87.915 68.6973C87.6781 68.5879 87.4001 68.5332 87.0811 68.5332C86.7347 68.5332 86.4362 68.6061 86.1855 68.752C85.9395 68.8932 85.7367 69.0892 85.5771 69.3398C85.4222 69.5859 85.306 69.873 85.2285 70.2012C85.1556 70.5247 85.1191 70.8711 85.1191 71.2402ZM95.0859 75.1367C94.571 75.1367 94.1038 75.0501 93.6846 74.877C93.2699 74.6992 92.9121 74.4508 92.6113 74.1318C92.3151 73.8128 92.0872 73.4346 91.9277 72.9971C91.7682 72.5596 91.6885 72.0811 91.6885 71.5615V71.2744C91.6885 70.6729 91.7773 70.1374 91.9551 69.668C92.1328 69.194 92.3743 68.793 92.6797 68.4648C92.985 68.1367 93.3314 67.8883 93.7188 67.7197C94.1061 67.5511 94.5072 67.4668 94.9219 67.4668C95.4505 67.4668 95.9062 67.5579 96.2891 67.7402C96.6764 67.9225 96.9932 68.1777 97.2393 68.5059C97.4854 68.8294 97.6676 69.2122 97.7861 69.6543C97.9046 70.0918 97.9639 70.5703 97.9639 71.0898V71.6572H92.4404V70.625H96.6992V70.5293C96.681 70.2012 96.6126 69.8822 96.4941 69.5723C96.3802 69.2624 96.1979 69.0072 95.9473 68.8066C95.6966 68.6061 95.3548 68.5059 94.9219 68.5059C94.6348 68.5059 94.3704 68.5674 94.1289 68.6904C93.8874 68.8089 93.68 68.9867 93.5068 69.2236C93.3337 69.4606 93.1992 69.75 93.1035 70.0918C93.0078 70.4336 92.96 70.8278 92.96 71.2744V71.5615C92.96 71.9124 93.0078 72.2428 93.1035 72.5527C93.2038 72.8581 93.3473 73.127 93.5342 73.3594C93.7256 73.5918 93.9557 73.7741 94.2246 73.9062C94.498 74.0384 94.8079 74.1045 95.1543 74.1045C95.6009 74.1045 95.9792 74.0133 96.2891 73.8311C96.599 73.6488 96.8701 73.4049 97.1025 73.0996L97.8682 73.708C97.7087 73.9495 97.5059 74.1797 97.2598 74.3984C97.0137 74.6172 96.7106 74.7949 96.3506 74.9316C95.9951 75.0684 95.5736 75.1367 95.0859 75.1367ZM104.991 74.2344L107.049 67.6035H108.402L105.436 76.1416C105.367 76.3239 105.276 76.5199 105.162 76.7295C105.053 76.9437 104.911 77.1465 104.738 77.3379C104.565 77.5293 104.355 77.6842 104.109 77.8027C103.868 77.9258 103.578 77.9873 103.241 77.9873C103.141 77.9873 103.013 77.9736 102.858 77.9463C102.703 77.9189 102.594 77.8962 102.53 77.8779L102.523 76.8525C102.56 76.8571 102.617 76.8617 102.694 76.8662C102.776 76.8753 102.833 76.8799 102.865 76.8799C103.152 76.8799 103.396 76.8411 103.597 76.7637C103.797 76.6908 103.966 76.5654 104.103 76.3877C104.244 76.2145 104.365 75.9753 104.465 75.6699L104.991 74.2344ZM103.48 67.6035L105.401 73.3457L105.729 74.6787L104.82 75.1436L102.1 67.6035H103.48ZM109.1 71.3838V71.2266C109.1 70.6934 109.177 70.1989 109.332 69.7432C109.487 69.2829 109.71 68.8841 110.002 68.5469C110.294 68.2051 110.647 67.9408 111.062 67.7539C111.476 67.5625 111.941 67.4668 112.456 67.4668C112.976 67.4668 113.443 67.5625 113.857 67.7539C114.277 67.9408 114.632 68.2051 114.924 68.5469C115.22 68.8841 115.446 69.2829 115.601 69.7432C115.756 70.1989 115.833 70.6934 115.833 71.2266V71.3838C115.833 71.917 115.756 72.4115 115.601 72.8672C115.446 73.3229 115.22 73.7217 114.924 74.0635C114.632 74.4007 114.279 74.665 113.864 74.8564C113.454 75.0433 112.989 75.1367 112.47 75.1367C111.95 75.1367 111.483 75.0433 111.068 74.8564C110.654 74.665 110.298 74.4007 110.002 74.0635C109.71 73.7217 109.487 73.3229 109.332 72.8672C109.177 72.4115 109.1 71.917 109.1 71.3838ZM110.364 71.2266V71.3838C110.364 71.7529 110.408 72.1016 110.494 72.4297C110.581 72.7533 110.711 73.0404 110.884 73.291C111.062 73.5417 111.283 73.7399 111.547 73.8857C111.811 74.027 112.119 74.0977 112.47 74.0977C112.816 74.0977 113.119 74.027 113.379 73.8857C113.643 73.7399 113.862 73.5417 114.035 73.291C114.208 73.0404 114.338 72.7533 114.425 72.4297C114.516 72.1016 114.562 71.7529 114.562 71.3838V71.2266C114.562 70.862 114.516 70.5179 114.425 70.1943C114.338 69.8662 114.206 69.5768 114.028 69.3262C113.855 69.071 113.636 68.8704 113.372 68.7246C113.112 68.5788 112.807 68.5059 112.456 68.5059C112.11 68.5059 111.804 68.5788 111.54 68.7246C111.28 68.8704 111.062 69.071 110.884 69.3262C110.711 69.5768 110.581 69.8662 110.494 70.1943C110.408 70.5179 110.364 70.862 110.364 71.2266ZM121.944 73.291V67.6035H123.216V75H122.006L121.944 73.291ZM122.184 71.7324L122.71 71.7188C122.71 72.2109 122.658 72.6667 122.553 73.0859C122.452 73.5007 122.288 73.8607 122.061 74.166C121.833 74.4714 121.534 74.7106 121.165 74.8838C120.796 75.0524 120.347 75.1367 119.818 75.1367C119.458 75.1367 119.128 75.0843 118.827 74.9795C118.531 74.8747 118.276 74.7129 118.062 74.4941C117.847 74.2754 117.681 73.9906 117.562 73.6396C117.449 73.2887 117.392 72.8672 117.392 72.375V67.6035H118.656V72.3887C118.656 72.7214 118.693 72.9971 118.766 73.2158C118.843 73.43 118.946 73.6009 119.073 73.7285C119.205 73.8516 119.351 73.9382 119.511 73.9883C119.675 74.0384 119.843 74.0635 120.017 74.0635C120.554 74.0635 120.98 73.9609 121.295 73.7559C121.609 73.5462 121.835 73.266 121.972 72.915C122.113 72.5596 122.184 72.1654 122.184 71.7324ZM126.408 68.7656V75H125.144V67.6035H126.374L126.408 68.7656ZM128.719 67.5625L128.712 68.7383C128.607 68.7155 128.507 68.7018 128.411 68.6973C128.32 68.6882 128.215 68.6836 128.097 68.6836C127.805 68.6836 127.548 68.7292 127.324 68.8203C127.101 68.9115 126.912 69.0391 126.757 69.2031C126.602 69.3672 126.479 69.5632 126.388 69.791C126.301 70.0143 126.244 70.2604 126.217 70.5293L125.861 70.7344C125.861 70.2878 125.905 69.8685 125.991 69.4766C126.082 69.0846 126.221 68.7383 126.408 68.4375C126.595 68.1322 126.832 67.8952 127.119 67.7266C127.411 67.5534 127.757 67.4668 128.158 67.4668C128.249 67.4668 128.354 67.4782 128.473 67.501C128.591 67.5192 128.673 67.5397 128.719 67.5625ZM134.618 69.0732V75H133.347V67.6035H134.55L134.618 69.0732ZM134.358 71.0215L133.771 71.001C133.775 70.4951 133.841 70.028 133.969 69.5996C134.096 69.1667 134.285 68.7907 134.536 68.4717C134.787 68.1527 135.099 67.9066 135.473 67.7334C135.846 67.5557 136.279 67.4668 136.771 67.4668C137.118 67.4668 137.437 67.5169 137.729 67.6172C138.02 67.7129 138.273 67.8656 138.487 68.0752C138.701 68.2848 138.868 68.5537 138.986 68.8818C139.105 69.21 139.164 69.6064 139.164 70.0713V75H137.899V70.1328C137.899 69.7454 137.833 69.4355 137.701 69.2031C137.574 68.9707 137.391 68.8021 137.154 68.6973C136.917 68.5879 136.639 68.5332 136.32 68.5332C135.947 68.5332 135.634 68.5993 135.384 68.7314C135.133 68.8636 134.933 69.0459 134.782 69.2783C134.632 69.5107 134.522 69.7773 134.454 70.0781C134.39 70.3743 134.358 70.6888 134.358 71.0215ZM139.15 70.3242L138.303 70.584C138.307 70.1784 138.373 69.7887 138.501 69.415C138.633 69.0413 138.822 68.7087 139.068 68.417C139.319 68.1253 139.627 67.8952 139.991 67.7266C140.356 67.5534 140.773 67.4668 141.242 67.4668C141.639 67.4668 141.99 67.5192 142.295 67.624C142.605 67.7288 142.865 67.8906 143.074 68.1094C143.288 68.3236 143.45 68.5993 143.56 68.9365C143.669 69.2738 143.724 69.6748 143.724 70.1396V75H142.452V70.126C142.452 69.7113 142.386 69.39 142.254 69.1621C142.126 68.9297 141.944 68.7679 141.707 68.6768C141.475 68.5811 141.197 68.5332 140.873 68.5332C140.595 68.5332 140.349 68.5811 140.135 68.6768C139.921 68.7725 139.741 68.9046 139.595 69.0732C139.449 69.2373 139.337 69.4264 139.26 69.6406C139.187 69.8548 139.15 70.0827 139.15 70.3242ZM148.707 75.1367C148.192 75.1367 147.725 75.0501 147.306 74.877C146.891 74.6992 146.533 74.4508 146.232 74.1318C145.936 73.8128 145.708 73.4346 145.549 72.9971C145.389 72.5596 145.31 72.0811 145.31 71.5615V71.2744C145.31 70.6729 145.398 70.1374 145.576 69.668C145.754 69.194 145.995 68.793 146.301 68.4648C146.606 68.1367 146.952 67.8883 147.34 67.7197C147.727 67.5511 148.128 67.4668 148.543 67.4668C149.072 67.4668 149.527 67.5579 149.91 67.7402C150.298 67.9225 150.614 68.1777 150.86 68.5059C151.106 68.8294 151.289 69.2122 151.407 69.6543C151.526 70.0918 151.585 70.5703 151.585 71.0898V71.6572H146.062V70.625H150.32V70.5293C150.302 70.2012 150.234 69.8822 150.115 69.5723C150.001 69.2624 149.819 69.0072 149.568 68.8066C149.318 68.6061 148.976 68.5059 148.543 68.5059C148.256 68.5059 147.992 68.5674 147.75 68.6904C147.508 68.8089 147.301 68.9867 147.128 69.2236C146.955 69.4606 146.82 69.75 146.725 70.0918C146.629 70.4336 146.581 70.8278 146.581 71.2744V71.5615C146.581 71.9124 146.629 72.2428 146.725 72.5527C146.825 72.8581 146.968 73.127 147.155 73.3594C147.347 73.5918 147.577 73.7741 147.846 73.9062C148.119 74.0384 148.429 74.1045 148.775 74.1045C149.222 74.1045 149.6 74.0133 149.91 73.8311C150.22 73.6488 150.491 73.4049 150.724 73.0996L151.489 73.708C151.33 73.9495 151.127 74.1797 150.881 74.3984C150.635 74.6172 150.332 74.7949 149.972 74.9316C149.616 75.0684 149.195 75.1367 148.707 75.1367ZM156.131 75.1367C155.616 75.1367 155.149 75.0501 154.729 74.877C154.315 74.6992 153.957 74.4508 153.656 74.1318C153.36 73.8128 153.132 73.4346 152.973 72.9971C152.813 72.5596 152.733 72.0811 152.733 71.5615V71.2744C152.733 70.6729 152.822 70.1374 153 69.668C153.178 69.194 153.419 68.793 153.725 68.4648C154.03 68.1367 154.376 67.8883 154.764 67.7197C155.151 67.5511 155.552 67.4668 155.967 67.4668C156.495 67.4668 156.951 67.5579 157.334 67.7402C157.721 67.9225 158.038 68.1777 158.284 68.5059C158.53 68.8294 158.713 69.2122 158.831 69.6543C158.95 70.0918 159.009 70.5703 159.009 71.0898V71.6572H153.485V70.625H157.744V70.5293C157.726 70.2012 157.658 69.8822 157.539 69.5723C157.425 69.2624 157.243 69.0072 156.992 68.8066C156.742 68.6061 156.4 68.5059 155.967 68.5059C155.68 68.5059 155.415 68.5674 155.174 68.6904C154.932 68.8089 154.725 68.9867 154.552 69.2236C154.379 69.4606 154.244 69.75 154.148 70.0918C154.053 70.4336 154.005 70.8278 154.005 71.2744V71.5615C154.005 71.9124 154.053 72.2428 154.148 72.5527C154.249 72.8581 154.392 73.127 154.579 73.3594C154.771 73.5918 155.001 73.7741 155.27 73.9062C155.543 74.0384 155.853 74.1045 156.199 74.1045C156.646 74.1045 157.024 74.0133 157.334 73.8311C157.644 73.6488 157.915 73.4049 158.147 73.0996L158.913 73.708C158.754 73.9495 158.551 74.1797 158.305 74.3984C158.059 74.6172 157.756 74.7949 157.396 74.9316C157.04 75.0684 156.618 75.1367 156.131 75.1367ZM163.582 67.6035V68.5742H159.583V67.6035H163.582ZM160.937 65.8057H162.201V73.168C162.201 73.4186 162.24 73.6077 162.317 73.7354C162.395 73.863 162.495 73.9473 162.618 73.9883C162.741 74.0293 162.873 74.0498 163.015 74.0498C163.119 74.0498 163.229 74.0407 163.343 74.0225C163.461 73.9997 163.55 73.9814 163.609 73.9678L163.616 75C163.516 75.0319 163.384 75.0615 163.22 75.0889C163.06 75.1208 162.867 75.1367 162.639 75.1367C162.329 75.1367 162.044 75.0752 161.784 74.9521C161.524 74.8291 161.317 74.624 161.162 74.3369C161.012 74.0452 160.937 73.6533 160.937 73.1611V65.8057ZM166.439 67.6035V75H165.168V67.6035H166.439ZM165.072 65.6416C165.072 65.4365 165.134 65.2633 165.257 65.1221C165.384 64.9808 165.571 64.9102 165.817 64.9102C166.059 64.9102 166.243 64.9808 166.371 65.1221C166.503 65.2633 166.569 65.4365 166.569 65.6416C166.569 65.8376 166.503 66.0062 166.371 66.1475C166.243 66.2842 166.059 66.3525 165.817 66.3525C165.571 66.3525 165.384 66.2842 165.257 66.1475C165.134 66.0062 165.072 65.8376 165.072 65.6416ZM169.734 69.1826V75H168.47V67.6035H169.666L169.734 69.1826ZM169.434 71.0215L168.907 71.001C168.912 70.4951 168.987 70.028 169.133 69.5996C169.279 69.1667 169.484 68.7907 169.748 68.4717C170.012 68.1527 170.327 67.9066 170.691 67.7334C171.061 67.5557 171.468 67.4668 171.915 67.4668C172.28 67.4668 172.608 67.5169 172.899 67.6172C173.191 67.7129 173.439 67.8678 173.645 68.082C173.854 68.2962 174.014 68.5742 174.123 68.916C174.232 69.2533 174.287 69.6657 174.287 70.1533V75H173.016V70.1396C173.016 69.7523 172.959 69.4424 172.845 69.21C172.731 68.973 172.564 68.8021 172.346 68.6973C172.127 68.5879 171.858 68.5332 171.539 68.5332C171.225 68.5332 170.938 68.5993 170.678 68.7314C170.423 68.8636 170.201 69.0459 170.015 69.2783C169.832 69.5107 169.689 69.7773 169.584 70.0781C169.484 70.3743 169.434 70.6888 169.434 71.0215ZM181 67.6035H182.148V74.8428C182.148 75.4945 182.016 76.0505 181.752 76.5107C181.488 76.971 181.118 77.3197 180.645 77.5566C180.175 77.7982 179.633 77.9189 179.018 77.9189C178.762 77.9189 178.462 77.8779 178.115 77.7959C177.773 77.7184 177.436 77.584 177.104 77.3926C176.775 77.2057 176.5 76.9528 176.276 76.6338L176.939 75.8818C177.249 76.2555 177.573 76.5153 177.91 76.6611C178.252 76.807 178.589 76.8799 178.922 76.8799C179.323 76.8799 179.669 76.8047 179.961 76.6543C180.253 76.5039 180.478 76.2806 180.638 75.9844C180.802 75.6927 180.884 75.3327 180.884 74.9043V69.2305L181 67.6035ZM175.907 71.3838V71.2402C175.907 70.6751 175.973 70.1624 176.105 69.7021C176.242 69.2373 176.436 68.8385 176.687 68.5059C176.942 68.1732 177.249 67.918 177.609 67.7402C177.969 67.5579 178.375 67.4668 178.826 67.4668C179.291 67.4668 179.697 67.5488 180.043 67.7129C180.394 67.8724 180.69 68.1071 180.932 68.417C181.178 68.7223 181.371 69.0915 181.513 69.5244C181.654 69.9574 181.752 70.4473 181.807 70.9941V71.623C181.757 72.1654 181.659 72.653 181.513 73.0859C181.371 73.5189 181.178 73.888 180.932 74.1934C180.69 74.4987 180.394 74.7334 180.043 74.8975C179.692 75.057 179.282 75.1367 178.812 75.1367C178.37 75.1367 177.969 75.0433 177.609 74.8564C177.254 74.6696 176.949 74.4076 176.693 74.0703C176.438 73.7331 176.242 73.3366 176.105 72.8809C175.973 72.4206 175.907 71.9215 175.907 71.3838ZM177.172 71.2402V71.3838C177.172 71.7529 177.208 72.0993 177.281 72.4229C177.359 72.7464 177.475 73.0312 177.63 73.2773C177.789 73.5234 177.992 73.7171 178.238 73.8584C178.484 73.9951 178.778 74.0635 179.12 74.0635C179.539 74.0635 179.886 73.9746 180.159 73.7969C180.433 73.6191 180.649 73.3844 180.809 73.0928C180.973 72.8011 181.1 72.4844 181.191 72.1426V70.4951C181.141 70.2445 181.064 70.0029 180.959 69.7705C180.859 69.5335 180.727 69.3239 180.562 69.1416C180.403 68.9548 180.205 68.8066 179.968 68.6973C179.731 68.5879 179.453 68.5332 179.134 68.5332C178.787 68.5332 178.489 68.6061 178.238 68.752C177.992 68.8932 177.789 69.0892 177.63 69.3398C177.475 69.5859 177.359 69.873 177.281 70.2012C177.208 70.5247 177.172 70.8711 177.172 71.2402ZM188.376 73.0381C188.376 72.8558 188.335 72.6872 188.253 72.5322C188.175 72.3727 188.014 72.2292 187.768 72.1016C187.526 71.9694 187.161 71.8555 186.674 71.7598C186.264 71.6732 185.892 71.5706 185.56 71.4521C185.231 71.3337 184.951 71.1901 184.719 71.0215C184.491 70.8529 184.315 70.6546 184.192 70.4268C184.069 70.1989 184.008 69.9323 184.008 69.627C184.008 69.3353 184.072 69.0596 184.199 68.7998C184.331 68.54 184.516 68.3099 184.753 68.1094C184.994 67.9089 185.284 67.7516 185.621 67.6377C185.958 67.5238 186.334 67.4668 186.749 67.4668C187.341 67.4668 187.847 67.5716 188.267 67.7812C188.686 67.9909 189.007 68.2712 189.23 68.6221C189.454 68.9684 189.565 69.3535 189.565 69.7773H188.301C188.301 69.5723 188.239 69.374 188.116 69.1826C187.998 68.9867 187.822 68.8249 187.59 68.6973C187.362 68.5697 187.082 68.5059 186.749 68.5059C186.398 68.5059 186.113 68.5605 185.895 68.6699C185.68 68.7747 185.523 68.9092 185.423 69.0732C185.327 69.2373 185.279 69.4105 185.279 69.5928C185.279 69.7295 185.302 69.8525 185.348 69.9619C185.398 70.0667 185.484 70.1647 185.607 70.2559C185.73 70.3424 185.904 70.4245 186.127 70.502C186.35 70.5794 186.635 70.6569 186.981 70.7344C187.588 70.8711 188.087 71.0352 188.479 71.2266C188.87 71.418 189.162 71.6527 189.354 71.9307C189.545 72.2087 189.641 72.5459 189.641 72.9424C189.641 73.266 189.572 73.5622 189.436 73.8311C189.303 74.0999 189.11 74.3324 188.854 74.5283C188.604 74.7197 188.303 74.8701 187.952 74.9795C187.606 75.0843 187.216 75.1367 186.783 75.1367C186.132 75.1367 185.58 75.0205 185.129 74.7881C184.678 74.5557 184.336 74.2549 184.104 73.8857C183.871 73.5166 183.755 73.127 183.755 72.7168H185.026C185.045 73.0632 185.145 73.3389 185.327 73.5439C185.509 73.7445 185.733 73.888 185.997 73.9746C186.261 74.0566 186.523 74.0977 186.783 74.0977C187.13 74.0977 187.419 74.0521 187.651 73.9609C187.888 73.8698 188.068 73.7445 188.191 73.585C188.314 73.4255 188.376 73.2432 188.376 73.0381Z" fill="black" fill-opacity="0.45"/>
<defs>
<linearGradient id="paint0_linear_28_5059" x1="22.4953" y1="0.646974" x2="41.6289" y2="12.3706" gradientUnits="userSpaceOnUse">
<stop stop-color="#4285EB"/>
<stop offset="1" stop-color="#2EC7FF"/>
</linearGradient>
<linearGradient id="paint1_linear_28_5059" x1="25.0664" y1="0.646972" x2="15.6597" y2="49.4258" gradientUnits="userSpaceOnUse">
<stop stop-color="#29CDFF"/>
<stop offset="0.378601" stop-color="#148EFF"/>
<stop offset="1" stop-color="#0A60FF"/>
</linearGradient>
<linearGradient id="paint2_linear_28_5059" x1="43.7659" y1="12.3507" x2="31.5056" y2="31.5889" gradientUnits="userSpaceOnUse">
<stop stop-color="#FA816E"/>
<stop offset="0.414726" stop-color="#F74A5C"/>
<stop offset="1" stop-color="#F51D2C"/>
</linearGradient>
<linearGradient id="paint3_linear_28_5059" x1="26.3441" y1="14.3053" x2="22.271" y2="30.6528" gradientUnits="userSpaceOnUse">
<stop stop-color="#FA8E7D"/>
<stop offset="0.512635" stop-color="#F74A5C"/>
<stop offset="1" stop-color="#F51D2C"/>
</linearGradient>
<clipPath id="clip0_28_5059">
<rect width="46.1538" height="46" fill="white" transform="translate(1.17285 0.5)"/>
</clipPath>
</defs>
</svg>
